<svg fill="none" height="48" viewBox="0 0 142 48" width="142" xmlns="http://www.w3.org/2000/svg"><g fill="#0369a1"><path d="m28.6446 39.168c-.6032 1.3404-1.353 2.6531-2.2519 3.7888 7.4581-2.5137 12.9483-9.3054 13.5527-17.4568h-2.6549c-3.2399 0-5.8424 2.5861-6.369 5.7829-.4855 2.9468-1.2621 5.6301-2.2769 7.8851z"/><path d="m22.7724 25.5c3.3921 0 6.167 2.8299 5.5439 6.1643-1.3533 7.2424-4.5667 12.3357-8.3155 12.3357-4.7435 0-8.6299-8.1549-8.975-18.5z"/><path d="m30.9904 17.1502c.4961 3.2267 3.1106 5.8498 6.3752 5.8498h2.6107c-.4123-8.3729-5.9735-15.39183-13.5836-17.95683.8989 1.13575 1.6487 2.44843 2.2519 3.78878 1.0643 2.36505 1.8666 5.20115 2.3458 8.31825z"/><path d="m28.4165 16.8957c.5674 3.3176-2.1954 6.1043-5.5612 6.1043h-11.8434c.2344-10.5811 4.1693-19 8.9889-19 3.8447 0 7.1263 5.35721 8.4157 12.8957z"/><path d="m8.51131 23c.11359-5.4083 1.14536-10.3894 2.84579-14.16805.6031-1.34035 1.3529-2.65303 2.2519-3.78878-7.61011 2.565-13.171316 9.58393-13.5836094 17.95683z"/><path d="m.0562286 25.5c.6043994 8.1514 6.0946514 14.9431 13.5527714 17.4568-.899-1.1357-1.6488-2.4484-2.2519-3.7888-1.6479-3.6619-2.66781-8.4531-2.83264-13.668z"/></g><path d="m57.0191 32.4323c-1.098 0-2.133-.207-3.105-.621-.954-.414-1.791-1.026-2.511-1.836-.702-.828-1.233-1.836-1.593-3.024l3.429-1.35c.252.954.693 1.755 1.323 2.403s1.458.972 2.484.972c.504 0 .981-.081 1.431-.243.45-.18.81-.441 1.08-.783.288-.342.432-.765.432-1.269 0-.486-.117-.9-.351-1.242-.234-.36-.63-.693-1.188-.999-.54-.324-1.278-.657-2.214-.999l-1.188-.432c-.522-.198-1.053-.441-1.593-.729-.522-.306-1.008-.675-1.458-1.107-.432-.45-.783-.963-1.053-1.539s-.405-1.233-.405-1.971c0-1.008.261-1.917.783-2.727.522-.828 1.251-1.485 2.187-1.971s2.025-.729 3.267-.729c1.296 0 2.367.225 3.213.675.846.432 1.503.963 1.971 1.593.486.63.828 1.242 1.026 1.836l-3.213 1.35c-.108-.36-.288-.702-.54-1.026s-.576-.585-.972-.783-.873-.297-1.431-.297c-.522 0-.99.09-1.404.27-.414.162-.738.396-.972.702-.234.288-.351.63-.351 1.026 0 .576.243 1.071.729 1.485.504.414 1.305.801 2.403 1.161l1.215.405c.684.234 1.332.513 1.944.837.63.306 1.188.693 1.674 1.161s.864 1.026 1.134 1.674c.288.648.432 1.422.432 2.322 0 .99-.198 1.854-.594 2.592s-.918 1.341-1.566 1.809-1.368.819-2.16 1.053c-.774.234-1.539.351-2.295.351z" fill="#0a0a0a"/><path d="m72.0589 32.4323c-1.386 0-2.628-.315-3.726-.945-1.08-.63-1.935-1.494-2.565-2.592-.612-1.098-.918-2.349-.918-3.753 0-1.314.306-2.529.918-3.645s1.449-2.007 2.511-2.673c1.062-.684 2.277-1.026 3.645-1.026 1.476 0 2.718.315 3.726.945s1.773 1.476 2.295 2.538c.522 1.044.783 2.205.783 3.483 0 .288-.009.54-.027.756-.018.198-.036.342-.054.432h-11.826v-2.511h8.505c-.018-.306-.108-.621-.27-.945s-.387-.621-.675-.891-.639-.486-1.053-.648c-.396-.18-.855-.27-1.377-.27-.684 0-1.314.18-1.89.54-.558.36-.999.864-1.323 1.512-.324.63-.486 1.386-.486 2.268 0 .918.171 1.701.513 2.349.342.63.801 1.116 1.377 1.458.594.324 1.251.486 1.971.486.846 0 1.557-.18 2.133-.54.576-.378 1.026-.846 1.35-1.404l2.862 1.404c-.648 1.134-1.494 2.034-2.538 2.7-1.044.648-2.331.972-3.861.972z" fill="#0a0a0a"/><path d="m87.0165 32.4323c-1.386 0-2.628-.315-3.726-.945-1.08-.63-1.935-1.494-2.565-2.592-.612-1.098-.918-2.349-.918-3.753 0-1.314.306-2.529.918-3.645s1.449-2.007 2.511-2.673c1.062-.684 2.277-1.026 3.645-1.026 1.476 0 2.718.315 3.726.945s1.773 1.476 2.295 2.538c.522 1.044.783 2.205.783 3.483 0 .288-.009.54-.027.756-.018.198-.036.342-.054.432h-11.826v-2.511h8.505c-.018-.306-.108-.621-.27-.945s-.387-.621-.675-.891-.639-.486-1.053-.648c-.396-.18-.855-.27-1.377-.27-.684 0-1.314.18-1.89.54-.558.36-.999.864-1.323 1.512-.324.63-.486 1.386-.486 2.268 0 .918.171 1.701.513 2.349.342.63.801 1.116 1.377 1.458.594.324 1.251.486 1.971.486.846 0 1.557-.18 2.133-.54.576-.378 1.026-.846 1.35-1.404l2.862 1.404c-.648 1.134-1.494 2.034-2.538 2.7-1.044.648-2.331.972-3.861.972z" fill="#0a0a0a"/><path d="m101.839 32.4323c-1.098 0-2.1329-.207-3.1049-.621-.954-.414-1.791-1.026-2.511-1.836-.702-.828-1.233-1.836-1.593-3.024l3.429-1.35c.252.954.693 1.755 1.323 2.403.6299.648 1.4579.972 2.4839.972.504 0 .981-.081 1.431-.243.45-.18.81-.441 1.08-.783.288-.342.432-.765.432-1.269 0-.486-.117-.9-.351-1.242-.234-.36-.63-.693-1.188-.999-.54-.324-1.278-.657-2.214-.999l-1.1879-.432c-.522-.198-1.053-.441-1.593-.729-.522-.306-1.008-.675-1.458-1.107-.432-.45-.783-.963-1.053-1.539s-.405-1.233-.405-1.971c0-1.008.261-1.917.783-2.727.522-.828 1.251-1.485 2.187-1.971s2.0249-.729 3.2669-.729c1.296 0 2.367.225 3.213.675.846.432 1.503.963 1.971 1.593.486.63.828 1.242 1.026 1.836l-3.213 1.35c-.108-.36-.288-.702-.54-1.026s-.576-.585-.972-.783-.873-.297-1.431-.297c-.522 0-.99.09-1.404.27-.4139.162-.7379.396-.9719.702-.234.288-.351.63-.351 1.026 0 .576.243 1.071.729 1.485.5039.414 1.3049.801 2.4029 1.161l1.215.405c.684.234 1.332.513 1.944.837.63.306 1.188.693 1.674 1.161s.864 1.026 1.134 1.674c.288.648.432 1.422.432 2.322 0 .99-.198 1.854-.594 2.592s-.918 1.341-1.566 1.809-1.368.819-2.16 1.053c-.774.234-1.539.351-2.295.351z" fill="#0a0a0a"/><path d="m114.665 32.4323c-.972 0-1.836-.189-2.592-.567-.738-.396-1.323-.945-1.755-1.647s-.648-1.512-.648-2.43c0-.954.243-1.773.729-2.457.504-.684 1.17-1.215 1.998-1.593.846-.378 1.782-.567 2.808-.567.558 0 1.062.036 1.512.108.468.054.882.126 1.242.216s.657.189.891.297v-.594c0-.738-.279-1.341-.837-1.809-.558-.486-1.323-.729-2.295-.729-.648 0-1.278.153-1.89.459-.594.288-1.089.675-1.485 1.161l-2.268-1.782c.45-.576.972-1.062 1.566-1.458.594-.414 1.251-.72 1.971-.918.72-.216 1.476-.324 2.268-.324 2.106 0 3.708.486 4.806 1.458s1.647 2.394 1.647 4.266v8.478h-3.483v-1.404h-.216c-.252.324-.567.63-.945.918-.378.27-.819.486-1.323.648-.504.18-1.071.27-1.701.27zm.837-2.754c.72 0 1.323-.153 1.809-.459.504-.324.882-.738 1.134-1.242.27-.504.405-1.035.405-1.593-.396-.198-.846-.351-1.35-.459-.504-.126-1.017-.189-1.539-.189-1.044 0-1.764.198-2.16.594s-.594.882-.594 1.458c0 .54.189.99.567 1.35.396.36.972.54 1.728.54z" fill="#0a0a0a"/><path d="m129.807 37.2113c-.054.126-.108.234-.162.324-.036.108-.072.207-.108.297h-3.807c.072-.144.207-.45.405-.918.216-.45.396-.837.54-1.161.108-.216.234-.495.378-.837s.288-.684.432-1.026c.162-.324.288-.576.378-.756l2.079-4.617.729-1.728 3.429-8.559h3.942l-7.101 16.362c-.198.468-.378.873-.54 1.215-.144.342-.261.621-.351.837-.09.234-.171.423-.243.567zm-.945-5.427-5.994-13.554h4.023l3.564 8.559h.405z" fill="#0a0a0a"/></svg>