<svg width="155" height="54" viewBox="0 0 155 54" fill="none" xmlns="http://www.w3.org/2000/svg">
<g filter="url(#filter0_ddiii_15060_1724)">
<g clip-path="url(#clip0_15060_1724)">
<rect x="3" width="48" height="48" rx="12" fill="#0369A1"/>
<rect width="48" height="48" transform="translate(3)" fill="url(#paint0_linear_15060_1724)"/>
<g filter="url(#filter1_d_15060_1724)">
<path d="M33.4839 35.376C33.0316 36.3813 32.4692 37.3658 31.795 38.2176C37.3886 36.3323 41.5063 31.2386 41.9596 25.125H39.9684C37.5385 25.125 35.5866 27.0646 35.1916 29.4622C34.8275 31.6723 34.245 33.6848 33.4839 35.376Z" fill="url(#paint1_linear_15060_1724)"/>
<path d="M29.0798 25.125C31.6239 25.125 33.705 27.2474 33.2377 29.7482C32.2228 35.18 29.8127 39 27.0011 39C23.4435 39 20.5287 32.8838 20.2698 25.125H29.0798Z" fill="url(#paint2_linear_15060_1724)"/>
<path d="M35.2433 18.8626C35.6154 21.2826 37.5763 23.25 40.0247 23.25H41.9827C41.6735 16.9704 37.5026 11.7061 31.795 9.78238C32.4692 10.6342 33.0316 11.6187 33.4839 12.624C34.2821 14.3977 34.8839 16.5248 35.2433 18.8626Z" fill="url(#paint3_linear_15060_1724)"/>
<path d="M33.3129 18.6718C33.7384 21.16 31.6663 23.25 29.142 23.25H20.2594C20.4352 15.3142 23.3864 9 27.0011 9C29.8846 9 32.3458 13.0179 33.3129 18.6718Z" fill="url(#paint4_linear_15060_1724)"/>
<path d="M18.384 23.25C18.4692 19.1938 19.243 15.4579 20.5183 12.624C20.9707 11.6187 21.533 10.6342 22.2072 9.78238C16.4997 11.7061 12.3288 16.9703 12.0195 23.25H18.384Z" fill="url(#paint5_linear_15060_1724)"/>
<path d="M12.0427 25.125C12.496 31.2386 16.6136 36.3323 22.2072 38.2176C21.533 37.3658 20.9707 36.3813 20.5183 35.376C19.2824 32.6296 18.5175 29.0362 18.3938 25.125H12.0427Z" fill="url(#paint6_linear_15060_1724)"/>
</g>
</g>
<rect x="4" y="1" width="46" height="46" rx="11" stroke="url(#paint7_linear_15060_1724)" stroke-width="2"/>
</g>
<g opacity="0.84">
<path d="M70.0191 32.4323C68.9211 32.4323 67.8861 32.2253 66.9141 31.8113C65.9601 31.3973 65.1231 30.7853 64.4031 29.9753C63.7011 29.1473 63.1701 28.1393 62.8101 26.9513L66.2391 25.6013C66.4911 26.5553 66.9321 27.3563 67.5621 28.0043C68.1921 28.6523 69.0201 28.9763 70.0461 28.9763C70.5501 28.9763 71.0271 28.8953 71.4771 28.7333C71.9271 28.5533 72.2871 28.2923 72.5571 27.9503C72.8451 27.6083 72.9891 27.1853 72.9891 26.6813C72.9891 26.1953 72.8721 25.7813 72.6381 25.4393C72.4041 25.0793 72.0081 24.7463 71.4501 24.4403C70.9101 24.1163 70.1721 23.7833 69.2361 23.4413L68.0481 23.0093C67.5261 22.8113 66.9951 22.5683 66.4551 22.2803C65.9331 21.9743 65.4471 21.6053 64.9971 21.1733C64.5651 20.7233 64.2141 20.2103 63.9441 19.6343C63.6741 19.0583 63.5391 18.4013 63.5391 17.6633C63.5391 16.6553 63.8001 15.7463 64.3221 14.9363C64.8441 14.1083 65.5731 13.4513 66.5091 12.9653C67.4451 12.4793 68.5341 12.2363 69.7761 12.2363C71.0721 12.2363 72.1431 12.4613 72.9891 12.9113C73.8351 13.3433 74.4921 13.8743 74.9601 14.5043C75.4461 15.1343 75.7881 15.7463 75.9861 16.3403L72.7731 17.6903C72.6651 17.3303 72.4851 16.9883 72.2331 16.6643C71.9811 16.3403 71.6571 16.0793 71.2611 15.8813C70.8651 15.6833 70.3881 15.5843 69.8301 15.5843C69.3081 15.5843 68.8401 15.6743 68.4261 15.8543C68.0121 16.0163 67.6881 16.2503 67.4541 16.5563C67.2201 16.8443 67.1031 17.1863 67.1031 17.5823C67.1031 18.1583 67.3461 18.6533 67.8321 19.0673C68.3361 19.4813 69.1371 19.8683 70.2351 20.2283L71.4501 20.6333C72.1341 20.8673 72.7821 21.1463 73.3941 21.4703C74.0241 21.7763 74.5821 22.1633 75.0681 22.6313C75.5541 23.0993 75.9321 23.6573 76.2021 24.3053C76.4901 24.9533 76.6341 25.7273 76.6341 26.6273C76.6341 27.6173 76.4361 28.4813 76.0401 29.2193C75.6441 29.9573 75.1221 30.5603 74.4741 31.0283C73.8261 31.4963 73.1061 31.8473 72.3141 32.0813C71.5401 32.3153 70.7751 32.4323 70.0191 32.4323Z" fill="white"/>
<path d="M85.0589 32.4323C83.6729 32.4323 82.4309 32.1173 81.3329 31.4873C80.2529 30.8573 79.3979 29.9933 78.7679 28.8953C78.1559 27.7973 77.8499 26.5463 77.8499 25.1423C77.8499 23.8283 78.1559 22.6133 78.7679 21.4973C79.3799 20.3813 80.2169 19.4903 81.2789 18.8243C82.3409 18.1403 83.5559 17.7983 84.9239 17.7983C86.3999 17.7983 87.6419 18.1133 88.6499 18.7433C89.6579 19.3733 90.4229 20.2193 90.9449 21.2813C91.4669 22.3253 91.7279 23.4863 91.7279 24.7643C91.7279 25.0523 91.7189 25.3043 91.7009 25.5203C91.6829 25.7183 91.6649 25.8623 91.6469 25.9523H79.8209V23.4413H88.3259C88.3079 23.1353 88.2179 22.8203 88.0559 22.4963C87.8939 22.1723 87.6689 21.8753 87.3809 21.6053C87.0929 21.3353 86.7419 21.1193 86.3279 20.9573C85.9319 20.7773 85.4729 20.6873 84.9509 20.6873C84.2669 20.6873 83.6369 20.8673 83.0609 21.2273C82.5029 21.5873 82.0619 22.0913 81.7379 22.7393C81.4139 23.3693 81.2519 24.1253 81.2519 25.0073C81.2519 25.9253 81.4229 26.7083 81.7649 27.3563C82.1069 27.9863 82.5659 28.4723 83.1419 28.8143C83.7359 29.1383 84.3929 29.3003 85.1129 29.3003C85.9589 29.3003 86.6699 29.1203 87.2459 28.7603C87.8219 28.3823 88.2719 27.9143 88.5959 27.3563L91.4579 28.7603C90.8099 29.8943 89.9639 30.7943 88.9199 31.4603C87.8759 32.1083 86.5889 32.4323 85.0589 32.4323Z" fill="white"/>
<path d="M100.016 32.4323C98.6305 32.4323 97.3885 32.1173 96.2905 31.4873C95.2105 30.8573 94.3555 29.9933 93.7255 28.8953C93.1135 27.7973 92.8075 26.5463 92.8075 25.1423C92.8075 23.8283 93.1135 22.6133 93.7255 21.4973C94.3375 20.3813 95.1745 19.4903 96.2365 18.8243C97.2985 18.1403 98.5135 17.7983 99.8815 17.7983C101.357 17.7983 102.599 18.1133 103.607 18.7433C104.615 19.3733 105.38 20.2193 105.902 21.2813C106.424 22.3253 106.685 23.4863 106.685 24.7643C106.685 25.0523 106.676 25.3043 106.658 25.5203C106.64 25.7183 106.622 25.8623 106.604 25.9523H94.7785V23.4413H103.283C103.265 23.1353 103.175 22.8203 103.013 22.4963C102.851 22.1723 102.626 21.8753 102.338 21.6053C102.05 21.3353 101.699 21.1193 101.285 20.9573C100.889 20.7773 100.43 20.6873 99.9085 20.6873C99.2245 20.6873 98.5945 20.8673 98.0185 21.2273C97.4605 21.5873 97.0195 22.0913 96.6955 22.7393C96.3715 23.3693 96.2095 24.1253 96.2095 25.0073C96.2095 25.9253 96.3805 26.7083 96.7225 27.3563C97.0645 27.9863 97.5235 28.4723 98.0995 28.8143C98.6935 29.1383 99.3505 29.3003 100.07 29.3003C100.916 29.3003 101.627 29.1203 102.203 28.7603C102.779 28.3823 103.229 27.9143 103.553 27.3563L106.415 28.7603C105.767 29.8943 104.921 30.7943 103.877 31.4603C102.833 32.1083 101.546 32.4323 100.016 32.4323Z" fill="white"/>
<path d="M114.839 32.4323C113.741 32.4323 112.706 32.2253 111.734 31.8113C110.78 31.3973 109.943 30.7853 109.223 29.9753C108.521 29.1473 107.99 28.1393 107.63 26.9513L111.059 25.6013C111.311 26.5553 111.752 27.3563 112.382 28.0043C113.012 28.6523 113.84 28.9763 114.866 28.9763C115.37 28.9763 115.847 28.8953 116.297 28.7333C116.747 28.5533 117.107 28.2923 117.377 27.9503C117.665 27.6083 117.809 27.1853 117.809 26.6813C117.809 26.1953 117.692 25.7813 117.458 25.4393C117.224 25.0793 116.828 24.7463 116.27 24.4403C115.73 24.1163 114.992 23.7833 114.056 23.4413L112.868 23.0093C112.346 22.8113 111.815 22.5683 111.275 22.2803C110.753 21.9743 110.267 21.6053 109.817 21.1733C109.385 20.7233 109.034 20.2103 108.764 19.6343C108.494 19.0583 108.359 18.4013 108.359 17.6633C108.359 16.6553 108.62 15.7463 109.142 14.9363C109.664 14.1083 110.393 13.4513 111.329 12.9653C112.265 12.4793 113.354 12.2363 114.596 12.2363C115.892 12.2363 116.963 12.4613 117.809 12.9113C118.655 13.3433 119.312 13.8743 119.78 14.5043C120.266 15.1343 120.608 15.7463 120.806 16.3403L117.593 17.6903C117.485 17.3303 117.305 16.9883 117.053 16.6643C116.801 16.3403 116.477 16.0793 116.081 15.8813C115.685 15.6833 115.208 15.5843 114.65 15.5843C114.128 15.5843 113.66 15.6743 113.246 15.8543C112.832 16.0163 112.508 16.2503 112.274 16.5563C112.04 16.8443 111.923 17.1863 111.923 17.5823C111.923 18.1583 112.166 18.6533 112.652 19.0673C113.156 19.4813 113.957 19.8683 115.055 20.2283L116.27 20.6333C116.954 20.8673 117.602 21.1463 118.214 21.4703C118.844 21.7763 119.402 22.1633 119.888 22.6313C120.374 23.0993 120.752 23.6573 121.022 24.3053C121.31 24.9533 121.454 25.7273 121.454 26.6273C121.454 27.6173 121.256 28.4813 120.86 29.2193C120.464 29.9573 119.942 30.5603 119.294 31.0283C118.646 31.4963 117.926 31.8473 117.134 32.0813C116.36 32.3153 115.595 32.4323 114.839 32.4323Z" fill="white"/>
<path d="M127.665 32.4323C126.693 32.4323 125.829 32.2433 125.073 31.8653C124.335 31.4693 123.75 30.9203 123.318 30.2183C122.886 29.5163 122.67 28.7063 122.67 27.7883C122.67 26.8343 122.913 26.0153 123.399 25.3313C123.903 24.6473 124.569 24.1163 125.397 23.7383C126.243 23.3603 127.179 23.1713 128.205 23.1713C128.763 23.1713 129.267 23.2073 129.717 23.2793C130.185 23.3333 130.599 23.4053 130.959 23.4953C131.319 23.5853 131.616 23.6843 131.85 23.7923V23.1983C131.85 22.4603 131.571 21.8573 131.013 21.3893C130.455 20.9033 129.69 20.6603 128.718 20.6603C128.07 20.6603 127.44 20.8133 126.828 21.1193C126.234 21.4073 125.739 21.7943 125.343 22.2803L123.075 20.4983C123.525 19.9223 124.047 19.4363 124.641 19.0403C125.235 18.6263 125.892 18.3203 126.612 18.1223C127.332 17.9063 128.088 17.7983 128.88 17.7983C130.986 17.7983 132.588 18.2843 133.686 19.2563C134.784 20.2283 135.333 21.6503 135.333 23.5223V32.0003H131.85V30.5963H131.634C131.382 30.9203 131.067 31.2263 130.689 31.5143C130.311 31.7843 129.87 32.0003 129.366 32.1623C128.862 32.3423 128.295 32.4323 127.665 32.4323ZM128.502 29.6783C129.222 29.6783 129.825 29.5253 130.311 29.2193C130.815 28.8953 131.193 28.4813 131.445 27.9773C131.715 27.4733 131.85 26.9423 131.85 26.3843C131.454 26.1863 131.004 26.0333 130.5 25.9253C129.996 25.7993 129.483 25.7363 128.961 25.7363C127.917 25.7363 127.197 25.9343 126.801 26.3303C126.405 26.7263 126.207 27.2123 126.207 27.7883C126.207 28.3283 126.396 28.7783 126.774 29.1383C127.17 29.4983 127.746 29.6783 128.502 29.6783Z" fill="white"/>
<path d="M142.807 37.2113C142.753 37.3373 142.699 37.4453 142.645 37.5353C142.609 37.6433 142.573 37.7423 142.537 37.8323H138.73C138.802 37.6883 138.937 37.3823 139.135 36.9143C139.351 36.4643 139.531 36.0773 139.675 35.7533C139.783 35.5373 139.909 35.2583 140.053 34.9163C140.197 34.5743 140.341 34.2323 140.485 33.8903C140.647 33.5663 140.773 33.3143 140.863 33.1343L142.942 28.5173L143.671 26.7893L147.1 18.2303H151.042L143.941 34.5923C143.743 35.0603 143.563 35.4653 143.401 35.8073C143.257 36.1493 143.14 36.4283 143.05 36.6443C142.96 36.8783 142.879 37.0673 142.807 37.2113ZM141.862 31.7843L135.868 18.2303H139.891L143.455 26.7893H143.86L141.862 31.7843Z" fill="white"/>
</g>
<defs>
<filter id="filter0_ddiii_15060_1724" x="0" y="-3" width="54" height="57" filterUnits="userSpaceOnUse" color-interpolation-filters="sRGB">
<feFlood flood-opacity="0" result="BackgroundImageFix"/>
<feColorMatrix in="SourceAlpha" type="matrix" values="0 0 0 0 0 0 0 0 0 0 0 0 0 0 0 0 0 0 127 0" result="hardAlpha"/>
<feOffset dy="1"/>
<feGaussianBlur stdDeviation="0.5"/>
<feComposite in2="hardAlpha" operator="out"/>
<feColorMatrix type="matrix" values="0 0 0 0 0.162923 0 0 0 0 0.162923 0 0 0 0 0.162923 0 0 0 0.08 0"/>
<feBlend mode="normal" in2="BackgroundImageFix" result="effect1_dropShadow_15060_1724"/>
<feColorMatrix in="SourceAlpha" type="matrix" values="0 0 0 0 0 0 0 0 0 0 0 0 0 0 0 0 0 0 127 0" result="hardAlpha"/>
<feMorphology radius="1" operator="erode" in="SourceAlpha" result="effect2_dropShadow_15060_1724"/>
<feOffset dy="3"/>
<feGaussianBlur stdDeviation="2"/>
<feComposite in2="hardAlpha" operator="out"/>
<feColorMatrix type="matrix" values="0 0 0 0 0.164706 0 0 0 0 0.164706 0 0 0 0 0.164706 0 0 0 0.14 0"/>
<feBlend mode="normal" in2="effect1_dropShadow_15060_1724" result="effect2_dropShadow_15060_1724"/>
<feBlend mode="normal" in="SourceGraphic" in2="effect2_dropShadow_15060_1724" result="shape"/>
<feColorMatrix in="SourceAlpha" type="matrix" values="0 0 0 0 0 0 0 0 0 0 0 0 0 0 0 0 0 0 127 0" result="hardAlpha"/>
<feOffset dy="-3"/>
<feGaussianBlur stdDeviation="1.5"/>
<feComposite in2="hardAlpha" operator="arithmetic" k2="-1" k3="1"/>
<feColorMatrix type="matrix" values="0 0 0 0 0 0 0 0 0 0 0 0 0 0 0 0 0 0 0.1 0"/>
<feBlend mode="normal" in2="shape" result="effect3_innerShadow_15060_1724"/>
<feColorMatrix in="SourceAlpha" type="matrix" values="0 0 0 0 0 0 0 0 0 0 0 0 0 0 0 0 0 0 127 0" result="hardAlpha"/>
<feOffset dy="3"/>
<feGaussianBlur stdDeviation="1.5"/>
<feComposite in2="hardAlpha" operator="arithmetic" k2="-1" k3="1"/>
<feColorMatrix type="matrix" values="0 0 0 0 1 0 0 0 0 1 0 0 0 0 1 0 0 0 0.1 0"/>
<feBlend mode="normal" in2="effect3_innerShadow_15060_1724" result="effect4_innerShadow_15060_1724"/>
<feColorMatrix in="SourceAlpha" type="matrix" values="0 0 0 0 0 0 0 0 0 0 0 0 0 0 0 0 0 0 127 0" result="hardAlpha"/>
<feMorphology radius="1" operator="erode" in="SourceAlpha" result="effect5_innerShadow_15060_1724"/>
<feOffset/>
<feComposite in2="hardAlpha" operator="arithmetic" k2="-1" k3="1"/>
<feColorMatrix type="matrix" values="0 0 0 0 0 0 0 0 0 0 0 0 0 0 0 0 0 0 0.2 0"/>
<feBlend mode="normal" in2="effect4_innerShadow_15060_1724" result="effect5_innerShadow_15060_1724"/>
</filter>
<filter id="filter1_d_15060_1724" x="9" y="5.25" width="36" height="42" filterUnits="userSpaceOnUse" color-interpolation-filters="sRGB">
<feFlood flood-opacity="0" result="BackgroundImageFix"/>
<feColorMatrix in="SourceAlpha" type="matrix" values="0 0 0 0 0 0 0 0 0 0 0 0 0 0 0 0 0 0 127 0" result="hardAlpha"/>
<feMorphology radius="1.5" operator="erode" in="SourceAlpha" result="effect1_dropShadow_15060_1724"/>
<feOffset dy="2.25"/>
<feGaussianBlur stdDeviation="2.25"/>
<feComposite in2="hardAlpha" operator="out"/>
<feColorMatrix type="matrix" values="0 0 0 0 0.141176 0 0 0 0 0.141176 0 0 0 0 0.141176 0 0 0 0.1 0"/>
<feBlend mode="normal" in2="BackgroundImageFix" result="effect1_dropShadow_15060_1724"/>
<feBlend mode="normal" in="SourceGraphic" in2="effect1_dropShadow_15060_1724" result="shape"/>
</filter>
<linearGradient id="paint0_linear_15060_1724" x1="24" y1="5.96047e-07" x2="26" y2="48" gradientUnits="userSpaceOnUse">
<stop stop-color="white" stop-opacity="0"/>
<stop offset="1" stop-color="white" stop-opacity="0.12"/>
</linearGradient>
<linearGradient id="paint1_linear_15060_1724" x1="27.0011" y1="9" x2="27.0011" y2="39" gradientUnits="userSpaceOnUse">
<stop stop-color="white" stop-opacity="0.8"/>
<stop offset="1" stop-color="white" stop-opacity="0.5"/>
</linearGradient>
<linearGradient id="paint2_linear_15060_1724" x1="27.0011" y1="9" x2="27.0011" y2="39" gradientUnits="userSpaceOnUse">
<stop stop-color="white" stop-opacity="0.8"/>
<stop offset="1" stop-color="white" stop-opacity="0.5"/>
</linearGradient>
<linearGradient id="paint3_linear_15060_1724" x1="27.0011" y1="9" x2="27.0011" y2="39" gradientUnits="userSpaceOnUse">
<stop stop-color="white" stop-opacity="0.8"/>
<stop offset="1" stop-color="white" stop-opacity="0.5"/>
</linearGradient>
<linearGradient id="paint4_linear_15060_1724" x1="27.0011" y1="9" x2="27.0011" y2="39" gradientUnits="userSpaceOnUse">
<stop stop-color="white" stop-opacity="0.8"/>
<stop offset="1" stop-color="white" stop-opacity="0.5"/>
</linearGradient>
<linearGradient id="paint5_linear_15060_1724" x1="27.0011" y1="9" x2="27.0011" y2="39" gradientUnits="userSpaceOnUse">
<stop stop-color="white" stop-opacity="0.8"/>
<stop offset="1" stop-color="white" stop-opacity="0.5"/>
</linearGradient>
<linearGradient id="paint6_linear_15060_1724" x1="27.0011" y1="9" x2="27.0011" y2="39" gradientUnits="userSpaceOnUse">
<stop stop-color="white" stop-opacity="0.8"/>
<stop offset="1" stop-color="white" stop-opacity="0.5"/>
</linearGradient>
<linearGradient id="paint7_linear_15060_1724" x1="27" y1="0" x2="27" y2="48" gradientUnits="userSpaceOnUse">
<stop stop-color="white" stop-opacity="0.12"/>
<stop offset="1" stop-color="white" stop-opacity="0"/>
</linearGradient>
<clipPath id="clip0_15060_1724">
<rect x="3" width="48" height="48" rx="12" fill="white"/>
</clipPath>
</defs>
</svg>
