<svg width="40" height="48" viewBox="0 0 40 48" fill="none" xmlns="http://www.w3.org/2000/svg">
<g opacity="0.84">
<path d="M28.6446 39.168C28.0414 40.5084 27.2916 41.8211 26.3927 42.9568C33.8508 40.4431 39.341 33.6514 39.9454 25.5H37.2905C34.0506 25.5 31.4481 28.0861 30.9215 31.2829C30.436 34.2297 29.6594 36.913 28.6446 39.168Z" fill="white"/>
<path d="M22.7724 25.5C26.1645 25.5 28.9394 28.3299 28.3163 31.6643C26.963 38.9067 23.7496 44 20.0008 44C15.2573 44 11.3709 35.8451 11.0258 25.5H22.7724Z" fill="white"/>
<path d="M30.9904 17.1502C31.4865 20.3769 34.101 23 37.3656 23H39.9763C39.564 14.6271 34.0028 7.60817 26.3927 5.04317C27.2916 6.17892 28.0414 7.4916 28.6446 8.83195C29.7089 11.197 30.5112 14.0331 30.9904 17.1502Z" fill="white"/>
<path d="M28.4165 16.8957C28.9839 20.2133 26.2211 23 22.8553 23H11.0119C11.2463 12.4189 15.1812 4 20.0008 4C23.8455 4 27.1271 9.35721 28.4165 16.8957Z" fill="white"/>
<path d="M8.51131 23C8.6249 17.5917 9.65667 12.6106 11.3571 8.83195C11.9602 7.4916 12.71 6.17892 13.609 5.04317C5.99889 7.60817 0.437684 14.6271 0.0253906 23H8.51131Z" fill="white"/>
<path d="M0.0562286 25.5C0.660628 33.6514 6.15088 40.4431 13.609 42.9568C12.71 41.8211 11.9602 40.5084 11.3571 39.168C9.7092 35.5061 8.68929 30.7149 8.52446 25.5H0.0562286Z" fill="white"/>
</g>
</svg>
