<svg width="142" height="48" viewBox="0 0 142 48" fill="none" xmlns="http://www.w3.org/2000/svg">
<g opacity="0.84">
<path d="M28.6446 39.168C28.0414 40.5084 27.2916 41.8211 26.3927 42.9568C33.8508 40.4431 39.341 33.6514 39.9454 25.5H37.2905C34.0506 25.5 31.4481 28.0861 30.9215 31.2829C30.436 34.2297 29.6594 36.913 28.6446 39.168Z" fill="white"/>
<path d="M22.7724 25.5C26.1645 25.5 28.9394 28.3299 28.3163 31.6643C26.963 38.9067 23.7496 44 20.0008 44C15.2573 44 11.3709 35.8451 11.0258 25.5H22.7724Z" fill="white"/>
<path d="M30.9904 17.1502C31.4865 20.3769 34.101 23 37.3656 23H39.9763C39.564 14.6271 34.0028 7.60817 26.3927 5.04317C27.2916 6.17892 28.0414 7.4916 28.6446 8.83195C29.7089 11.197 30.5112 14.0331 30.9904 17.1502Z" fill="white"/>
<path d="M28.4165 16.8957C28.9839 20.2133 26.2211 23 22.8553 23H11.0119C11.2463 12.4189 15.1812 4 20.0008 4C23.8455 4 27.1271 9.35721 28.4165 16.8957Z" fill="white"/>
<path d="M8.51131 23C8.6249 17.5917 9.65667 12.6106 11.3571 8.83195C11.9602 7.4916 12.71 6.17892 13.609 5.04317C5.99889 7.60817 0.437684 14.6271 0.0253906 23H8.51131Z" fill="white"/>
<path d="M0.0562286 25.5C0.660628 33.6514 6.15088 40.4431 13.609 42.9568C12.71 41.8211 11.9602 40.5084 11.3571 39.168C9.7092 35.5061 8.68929 30.7149 8.52446 25.5H0.0562286Z" fill="white"/>
</g>
<g opacity="0.84">
<path d="M57.0191 32.4323C55.9211 32.4323 54.8861 32.2253 53.9141 31.8113C52.9601 31.3973 52.1231 30.7853 51.4031 29.9753C50.7011 29.1473 50.1701 28.1393 49.8101 26.9513L53.2391 25.6013C53.4911 26.5553 53.9321 27.3563 54.5621 28.0043C55.1921 28.6523 56.0201 28.9763 57.0461 28.9763C57.5501 28.9763 58.0271 28.8953 58.4771 28.7333C58.9271 28.5533 59.2871 28.2923 59.5571 27.9503C59.8451 27.6083 59.9891 27.1853 59.9891 26.6813C59.9891 26.1953 59.8721 25.7813 59.6381 25.4393C59.4041 25.0793 59.0081 24.7463 58.4501 24.4403C57.9101 24.1163 57.1721 23.7833 56.2361 23.4413L55.0481 23.0093C54.5261 22.8113 53.9951 22.5683 53.4551 22.2803C52.9331 21.9743 52.4471 21.6053 51.9971 21.1733C51.5651 20.7233 51.2141 20.2103 50.9441 19.6343C50.6741 19.0583 50.5391 18.4013 50.5391 17.6633C50.5391 16.6553 50.8001 15.7463 51.3221 14.9363C51.8441 14.1083 52.5731 13.4513 53.5091 12.9653C54.4451 12.4793 55.5341 12.2363 56.7761 12.2363C58.0721 12.2363 59.1431 12.4613 59.9891 12.9113C60.8351 13.3433 61.4921 13.8743 61.9601 14.5043C62.4461 15.1343 62.7881 15.7463 62.9861 16.3403L59.7731 17.6903C59.6651 17.3303 59.4851 16.9883 59.2331 16.6643C58.9811 16.3403 58.6571 16.0793 58.2611 15.8813C57.8651 15.6833 57.3881 15.5843 56.8301 15.5843C56.3081 15.5843 55.8401 15.6743 55.4261 15.8543C55.0121 16.0163 54.6881 16.2503 54.4541 16.5563C54.2201 16.8443 54.1031 17.1863 54.1031 17.5823C54.1031 18.1583 54.3461 18.6533 54.8321 19.0673C55.3361 19.4813 56.1371 19.8683 57.2351 20.2283L58.4501 20.6333C59.1341 20.8673 59.7821 21.1463 60.3941 21.4703C61.0241 21.7763 61.5821 22.1633 62.0681 22.6313C62.5541 23.0993 62.9321 23.6573 63.2021 24.3053C63.4901 24.9533 63.6341 25.7273 63.6341 26.6273C63.6341 27.6173 63.4361 28.4813 63.0401 29.2193C62.6441 29.9573 62.1221 30.5603 61.4741 31.0283C60.8261 31.4963 60.1061 31.8473 59.3141 32.0813C58.5401 32.3153 57.7751 32.4323 57.0191 32.4323Z" fill="white"/>
<path d="M72.0589 32.4323C70.6729 32.4323 69.4309 32.1173 68.3329 31.4873C67.2529 30.8573 66.3979 29.9933 65.7679 28.8953C65.1559 27.7973 64.8499 26.5463 64.8499 25.1423C64.8499 23.8283 65.1559 22.6133 65.7679 21.4973C66.3799 20.3813 67.2169 19.4903 68.2789 18.8243C69.3409 18.1403 70.5559 17.7983 71.9239 17.7983C73.3999 17.7983 74.6419 18.1133 75.6499 18.7433C76.6579 19.3733 77.4229 20.2193 77.9449 21.2813C78.4669 22.3253 78.7279 23.4863 78.7279 24.7643C78.7279 25.0523 78.7189 25.3043 78.7009 25.5203C78.6829 25.7183 78.6649 25.8623 78.6469 25.9523H66.8209V23.4413H75.3259C75.3079 23.1353 75.2179 22.8203 75.0559 22.4963C74.8939 22.1723 74.6689 21.8753 74.3809 21.6053C74.0929 21.3353 73.7419 21.1193 73.3279 20.9573C72.9319 20.7773 72.4729 20.6873 71.9509 20.6873C71.2669 20.6873 70.6369 20.8673 70.0609 21.2273C69.5029 21.5873 69.0619 22.0913 68.7379 22.7393C68.4139 23.3693 68.2519 24.1253 68.2519 25.0073C68.2519 25.9253 68.4229 26.7083 68.7649 27.3563C69.1069 27.9863 69.5659 28.4723 70.1419 28.8143C70.7359 29.1383 71.3929 29.3003 72.1129 29.3003C72.9589 29.3003 73.6699 29.1203 74.2459 28.7603C74.8219 28.3823 75.2719 27.9143 75.5959 27.3563L78.4579 28.7603C77.8099 29.8943 76.9639 30.7943 75.9199 31.4603C74.8759 32.1083 73.5889 32.4323 72.0589 32.4323Z" fill="white"/>
<path d="M87.0165 32.4323C85.6305 32.4323 84.3885 32.1173 83.2905 31.4873C82.2105 30.8573 81.3555 29.9933 80.7255 28.8953C80.1135 27.7973 79.8075 26.5463 79.8075 25.1423C79.8075 23.8283 80.1135 22.6133 80.7255 21.4973C81.3375 20.3813 82.1745 19.4903 83.2365 18.8243C84.2985 18.1403 85.5135 17.7983 86.8815 17.7983C88.3575 17.7983 89.5995 18.1133 90.6075 18.7433C91.6155 19.3733 92.3805 20.2193 92.9025 21.2813C93.4245 22.3253 93.6855 23.4863 93.6855 24.7643C93.6855 25.0523 93.6765 25.3043 93.6585 25.5203C93.6405 25.7183 93.6225 25.8623 93.6045 25.9523H81.7785V23.4413H90.2835C90.2655 23.1353 90.1755 22.8203 90.0135 22.4963C89.8515 22.1723 89.6265 21.8753 89.3385 21.6053C89.0505 21.3353 88.6995 21.1193 88.2855 20.9573C87.8895 20.7773 87.4305 20.6873 86.9085 20.6873C86.2245 20.6873 85.5945 20.8673 85.0185 21.2273C84.4605 21.5873 84.0195 22.0913 83.6955 22.7393C83.3715 23.3693 83.2095 24.1253 83.2095 25.0073C83.2095 25.9253 83.3805 26.7083 83.7225 27.3563C84.0645 27.9863 84.5235 28.4723 85.0995 28.8143C85.6935 29.1383 86.3505 29.3003 87.0705 29.3003C87.9165 29.3003 88.6275 29.1203 89.2035 28.7603C89.7795 28.3823 90.2295 27.9143 90.5535 27.3563L93.4155 28.7603C92.7675 29.8943 91.9215 30.7943 90.8775 31.4603C89.8335 32.1083 88.5465 32.4323 87.0165 32.4323Z" fill="white"/>
<path d="M101.839 32.4323C100.741 32.4323 99.7061 32.2253 98.7341 31.8113C97.7801 31.3973 96.9431 30.7853 96.2231 29.9753C95.5211 29.1473 94.9901 28.1393 94.6301 26.9513L98.0591 25.6013C98.3111 26.5553 98.7521 27.3563 99.3821 28.0043C100.012 28.6523 100.84 28.9763 101.866 28.9763C102.37 28.9763 102.847 28.8953 103.297 28.7333C103.747 28.5533 104.107 28.2923 104.377 27.9503C104.665 27.6083 104.809 27.1853 104.809 26.6813C104.809 26.1953 104.692 25.7813 104.458 25.4393C104.224 25.0793 103.828 24.7463 103.27 24.4403C102.73 24.1163 101.992 23.7833 101.056 23.4413L99.8681 23.0093C99.3461 22.8113 98.8151 22.5683 98.2751 22.2803C97.7531 21.9743 97.2671 21.6053 96.8171 21.1733C96.3851 20.7233 96.0341 20.2103 95.7641 19.6343C95.4941 19.0583 95.3591 18.4013 95.3591 17.6633C95.3591 16.6553 95.6201 15.7463 96.1421 14.9363C96.6641 14.1083 97.3931 13.4513 98.3291 12.9653C99.2651 12.4793 100.354 12.2363 101.596 12.2363C102.892 12.2363 103.963 12.4613 104.809 12.9113C105.655 13.3433 106.312 13.8743 106.78 14.5043C107.266 15.1343 107.608 15.7463 107.806 16.3403L104.593 17.6903C104.485 17.3303 104.305 16.9883 104.053 16.6643C103.801 16.3403 103.477 16.0793 103.081 15.8813C102.685 15.6833 102.208 15.5843 101.65 15.5843C101.128 15.5843 100.66 15.6743 100.246 15.8543C99.8321 16.0163 99.5081 16.2503 99.2741 16.5563C99.0401 16.8443 98.9231 17.1863 98.9231 17.5823C98.9231 18.1583 99.1661 18.6533 99.6521 19.0673C100.156 19.4813 100.957 19.8683 102.055 20.2283L103.27 20.6333C103.954 20.8673 104.602 21.1463 105.214 21.4703C105.844 21.7763 106.402 22.1633 106.888 22.6313C107.374 23.0993 107.752 23.6573 108.022 24.3053C108.31 24.9533 108.454 25.7273 108.454 26.6273C108.454 27.6173 108.256 28.4813 107.86 29.2193C107.464 29.9573 106.942 30.5603 106.294 31.0283C105.646 31.4963 104.926 31.8473 104.134 32.0813C103.36 32.3153 102.595 32.4323 101.839 32.4323Z" fill="white"/>
<path d="M114.665 32.4323C113.693 32.4323 112.829 32.2433 112.073 31.8653C111.335 31.4693 110.75 30.9203 110.318 30.2183C109.886 29.5163 109.67 28.7063 109.67 27.7883C109.67 26.8343 109.913 26.0153 110.399 25.3313C110.903 24.6473 111.569 24.1163 112.397 23.7383C113.243 23.3603 114.179 23.1713 115.205 23.1713C115.763 23.1713 116.267 23.2073 116.717 23.2793C117.185 23.3333 117.599 23.4053 117.959 23.4953C118.319 23.5853 118.616 23.6843 118.85 23.7923V23.1983C118.85 22.4603 118.571 21.8573 118.013 21.3893C117.455 20.9033 116.69 20.6603 115.718 20.6603C115.07 20.6603 114.44 20.8133 113.828 21.1193C113.234 21.4073 112.739 21.7943 112.343 22.2803L110.075 20.4983C110.525 19.9223 111.047 19.4363 111.641 19.0403C112.235 18.6263 112.892 18.3203 113.612 18.1223C114.332 17.9063 115.088 17.7983 115.88 17.7983C117.986 17.7983 119.588 18.2843 120.686 19.2563C121.784 20.2283 122.333 21.6503 122.333 23.5223V32.0003H118.85V30.5963H118.634C118.382 30.9203 118.067 31.2263 117.689 31.5143C117.311 31.7843 116.87 32.0003 116.366 32.1623C115.862 32.3423 115.295 32.4323 114.665 32.4323ZM115.502 29.6783C116.222 29.6783 116.825 29.5253 117.311 29.2193C117.815 28.8953 118.193 28.4813 118.445 27.9773C118.715 27.4733 118.85 26.9423 118.85 26.3843C118.454 26.1863 118.004 26.0333 117.5 25.9253C116.996 25.7993 116.483 25.7363 115.961 25.7363C114.917 25.7363 114.197 25.9343 113.801 26.3303C113.405 26.7263 113.207 27.2123 113.207 27.7883C113.207 28.3283 113.396 28.7783 113.774 29.1383C114.17 29.4983 114.746 29.6783 115.502 29.6783Z" fill="white"/>
<path d="M129.807 37.2113C129.753 37.3373 129.699 37.4453 129.645 37.5353C129.609 37.6433 129.573 37.7423 129.537 37.8323H125.73C125.802 37.6883 125.937 37.3823 126.135 36.9143C126.351 36.4643 126.531 36.0773 126.675 35.7533C126.783 35.5373 126.909 35.2583 127.053 34.9163C127.197 34.5743 127.341 34.2323 127.485 33.8903C127.647 33.5663 127.773 33.3143 127.863 33.1343L129.942 28.5173L130.671 26.7893L134.1 18.2303H138.042L130.941 34.5923C130.743 35.0603 130.563 35.4653 130.401 35.8073C130.257 36.1493 130.14 36.4283 130.05 36.6443C129.96 36.8783 129.879 37.0673 129.807 37.2113ZM128.862 31.7843L122.868 18.2303H126.891L130.455 26.7893H130.86L128.862 31.7843Z" fill="white"/>
</g>
</svg>
