<svg width="1824" height="336" viewBox="0 0 1824 336" fill="none" xmlns="http://www.w3.org/2000/svg">
<path d="M94.6003 265.114C80.1917 265.114 66.6099 262.397 53.8548 256.962C41.3359 251.527 30.3524 243.494 20.9042 232.861C11.6922 221.992 4.72411 208.759 0 193.165L44.9971 175.443C48.304 187.966 54.091 198.481 62.3582 206.987C70.6254 215.494 81.4909 219.747 94.9546 219.747C101.568 219.747 107.828 218.684 113.733 216.557C119.638 214.194 124.362 210.768 127.905 206.278C131.684 201.789 133.574 196.236 133.574 189.62C133.574 183.241 132.039 177.806 128.968 173.316C125.897 168.591 120.701 164.219 113.379 160.203C106.292 155.949 96.608 151.578 84.3253 147.089L68.7358 141.418C61.8858 138.819 54.9178 135.629 47.8316 131.848C40.9816 127.831 34.6041 122.987 28.699 117.316C23.03 111.409 18.424 104.675 14.8809 97.1139C11.3379 89.5527 9.56632 80.9283 9.56632 71.2405C9.56632 58.0084 12.9913 46.076 19.8413 35.443C26.6912 24.5738 36.2575 15.9494 48.5402 9.56962C60.8229 3.18987 75.1133 0 91.4115 0C108.418 0 122.472 2.95359 133.574 8.86077C144.676 14.5317 153.297 21.5021 159.439 29.7722C165.816 38.0422 170.304 46.076 172.902 53.8734L130.74 71.5949C129.322 66.8692 126.96 62.3798 123.654 58.1266C120.347 53.8734 116.095 50.4473 110.898 47.8481C105.702 45.249 99.4425 43.9494 92.1201 43.9494C85.2701 43.9494 79.1288 45.1308 73.6961 47.4937C68.2634 49.6203 64.0117 52.692 60.941 56.7089C57.8703 60.4895 56.335 64.9789 56.335 70.1772C56.335 77.7384 59.5238 84.2363 65.9013 89.6709C72.5151 95.1055 83.0262 100.186 97.4347 104.911L113.379 110.228C122.354 113.3 130.858 116.962 138.889 121.215C147.156 125.232 154.478 130.312 160.856 136.456C167.233 142.599 172.194 149.924 175.737 158.43C179.516 166.937 181.406 177.097 181.406 188.911C181.406 201.907 178.807 213.249 173.611 222.937C168.414 232.624 161.564 240.54 153.061 246.684C144.558 252.827 135.109 257.435 124.716 260.506C114.56 263.578 104.521 265.114 94.6003 265.114Z" fill="black"/>
<path d="M291.961 265.114C273.773 265.114 257.475 260.979 243.066 252.709C228.894 244.439 217.674 233.097 209.407 218.684C201.376 204.27 197.361 187.848 197.361 169.418C197.361 152.169 201.376 136.219 209.407 121.57C217.438 106.92 228.422 95.2236 242.358 86.481C256.294 77.5021 272.238 73.0127 290.189 73.0127C309.558 73.0127 325.856 77.1477 339.084 85.4177C352.311 93.6878 362.35 104.793 369.2 118.734C376.05 132.439 379.475 147.679 379.475 164.456C379.475 168.236 379.357 171.544 379.121 174.38C378.884 176.979 378.648 178.869 378.412 180.051H223.225V147.089H334.832C334.596 143.072 333.415 138.937 331.289 134.684C329.163 130.43 326.211 126.532 322.431 122.987C318.652 119.443 314.046 116.608 308.613 114.481C303.417 112.118 297.394 110.937 290.544 110.937C281.568 110.937 273.301 113.3 265.742 118.025C258.42 122.751 252.633 129.367 248.381 137.873C244.129 146.143 242.003 156.068 242.003 167.646C242.003 179.696 244.247 189.975 248.735 198.481C253.223 206.751 259.246 213.131 266.805 217.62C274.6 221.873 283.221 224 292.67 224C303.771 224 313.101 221.637 320.66 216.911C328.218 211.949 334.124 205.806 338.375 198.481L375.932 216.911C367.429 231.797 356.327 243.612 342.627 252.354C328.927 260.861 312.038 265.114 291.961 265.114Z" fill="black"/>
<path d="M488.242 265.114C470.054 265.114 453.756 260.979 439.348 252.709C425.175 244.439 413.955 233.097 405.688 218.684C397.657 204.27 393.642 187.848 393.642 169.418C393.642 152.169 397.657 136.219 405.688 121.57C413.719 106.92 424.703 95.2236 438.639 86.481C452.575 77.5021 468.519 73.0127 486.47 73.0127C505.839 73.0127 522.138 77.1477 535.365 85.4177C548.593 93.6878 558.631 104.793 565.481 118.734C572.331 132.439 575.756 147.679 575.756 164.456C575.756 168.236 575.638 171.544 575.402 174.38C575.166 176.979 574.929 178.869 574.693 180.051H419.506V147.089H531.113C530.877 143.072 529.696 138.937 527.57 134.684C525.444 130.43 522.492 126.532 518.713 122.987C514.933 119.443 510.327 116.608 504.895 114.481C499.698 112.118 493.675 110.937 486.825 110.937C477.849 110.937 469.582 113.3 462.023 118.025C454.701 122.751 448.914 129.367 444.662 137.873C440.41 146.143 438.285 156.068 438.285 167.646C438.285 179.696 440.529 189.975 445.016 198.481C449.504 206.751 455.528 213.131 463.086 217.62C470.881 221.873 479.502 224 488.951 224C500.052 224 509.382 221.637 516.941 216.911C524.5 211.949 530.405 205.806 534.656 198.481L572.213 216.911C563.71 231.797 552.608 243.612 538.908 252.354C525.208 260.861 508.319 265.114 488.242 265.114Z" fill="black"/>
<path d="M678.633 259.443V5.6709H726.464V259.443H678.633Z" fill="black"/>
<path d="M753.348 118.38V78.6835H786.652V118.38H753.348ZM844.759 262.278C826.099 262.278 811.454 256.962 800.825 246.329C790.196 235.46 784.881 220.574 784.881 201.671V27.6456H831.295V193.165C831.295 201.907 833.067 208.405 836.61 212.658C840.153 216.675 845.94 218.684 853.971 218.684C857.75 218.684 861.293 218.211 864.6 217.266C867.907 216.084 872.041 213.958 877.001 210.886V256.253C871.805 258.143 866.49 259.561 861.057 260.506C855.861 261.688 850.428 262.278 844.759 262.278ZM829.524 118.38V78.6835H875.584V118.38H829.524Z" fill="black"/>
<path d="M1058.55 265.114C1044.14 265.114 1030.56 262.397 1017.81 256.962C1005.29 251.527 994.306 243.494 984.857 232.861C975.645 221.992 968.677 208.759 963.953 193.165L1008.95 175.443C1012.26 187.966 1018.04 198.481 1026.31 206.987C1034.58 215.494 1045.44 219.747 1058.91 219.747C1065.52 219.747 1071.78 218.684 1077.69 216.557C1083.59 214.194 1088.32 210.768 1091.86 206.278C1095.64 201.789 1097.53 196.236 1097.53 189.62C1097.53 183.241 1095.99 177.806 1092.92 173.316C1089.85 168.591 1084.65 164.219 1077.33 160.203C1070.25 155.949 1060.56 151.578 1048.28 147.089L1032.69 141.418C1025.84 138.819 1018.87 135.629 1011.78 131.848C1004.93 127.831 998.557 122.987 992.652 117.316C986.983 111.409 982.377 104.675 978.834 97.1139C975.291 89.5527 973.52 80.9283 973.52 71.2405C973.52 58.0084 976.944 46.076 983.794 35.443C990.644 24.5738 1000.21 15.9494 1012.49 9.56962C1024.78 3.18987 1039.07 0 1055.36 0C1072.37 0 1086.43 2.95359 1097.53 8.86077C1108.63 14.5317 1117.25 21.5021 1123.39 29.7722C1129.77 38.0422 1134.26 46.076 1136.86 53.8734L1094.69 71.5949C1093.28 66.8692 1090.91 62.3798 1087.61 58.1266C1084.3 53.8734 1080.05 50.4473 1074.85 47.8481C1069.66 45.249 1063.4 43.9494 1056.07 43.9494C1049.22 43.9494 1043.08 45.1308 1037.65 47.4937C1032.22 49.6203 1027.96 52.692 1024.89 56.7089C1021.82 60.4895 1020.29 64.9789 1020.29 70.1772C1020.29 77.7384 1023.48 84.2363 1029.85 89.6709C1036.47 95.1055 1046.98 100.186 1061.39 104.911L1077.33 110.228C1086.31 113.3 1094.81 116.962 1102.84 121.215C1111.11 125.232 1118.43 130.312 1124.81 136.456C1131.19 142.599 1136.15 149.924 1139.69 158.43C1143.47 166.937 1145.36 177.097 1145.36 188.911C1145.36 201.907 1142.76 213.249 1137.56 222.937C1132.37 232.624 1125.52 240.54 1117.01 246.684C1108.51 252.827 1099.06 257.435 1088.67 260.506C1078.51 263.578 1068.47 265.114 1058.55 265.114Z" fill="black"/>
<path d="M1226.86 265.114C1214.11 265.114 1202.77 262.633 1192.85 257.671C1183.16 252.473 1175.49 245.266 1169.82 236.051C1164.15 226.835 1161.31 216.203 1161.31 204.152C1161.31 191.629 1164.5 180.878 1170.88 171.899C1177.49 162.92 1186.23 155.949 1197.1 150.987C1208.2 146.025 1220.48 143.544 1233.95 143.544C1241.27 143.544 1247.88 144.017 1253.79 144.962C1259.93 145.671 1265.36 146.616 1270.09 147.797C1274.81 148.979 1278.71 150.278 1281.78 151.696V143.899C1281.78 134.211 1278.12 126.295 1270.8 120.152C1263.47 113.772 1253.43 110.582 1240.68 110.582C1232.18 110.582 1223.91 112.591 1215.88 116.608C1208.08 120.388 1201.59 125.468 1196.39 131.848L1166.63 108.456C1172.53 100.895 1179.38 94.5148 1187.18 89.3165C1194.97 83.8819 1203.59 79.865 1213.04 77.2658C1222.49 74.4304 1232.41 73.0127 1242.8 73.0127C1270.44 73.0127 1291.46 79.3924 1305.87 92.1519C1320.28 104.911 1327.48 123.578 1327.48 148.152V259.443H1281.78V241.013H1278.94C1275.64 245.266 1271.5 249.283 1266.54 253.063C1261.58 256.608 1255.8 259.443 1249.18 261.57C1242.57 263.932 1235.13 265.114 1226.86 265.114ZM1237.84 228.962C1247.29 228.962 1255.21 226.954 1261.58 222.937C1268.2 218.684 1273.16 213.249 1276.46 206.633C1280.01 200.017 1281.78 193.046 1281.78 185.722C1276.58 183.122 1270.68 181.114 1264.06 179.696C1257.45 178.042 1250.72 177.215 1243.87 177.215C1230.17 177.215 1220.72 179.814 1215.52 185.013C1210.33 190.211 1207.73 196.591 1207.73 204.152C1207.73 211.241 1210.21 217.148 1215.17 221.873C1220.37 226.599 1227.92 228.962 1237.84 228.962Z" fill="black"/>
<path d="M1425.56 327.848C1424.85 329.502 1424.14 330.92 1423.43 332.101C1422.96 333.519 1422.49 334.819 1422.02 336H1372.06C1373 334.11 1374.77 330.093 1377.37 323.949C1380.21 318.042 1382.57 312.962 1384.46 308.709C1385.88 305.873 1387.53 302.211 1389.42 297.722C1391.31 293.232 1393.2 288.743 1395.09 284.253C1397.21 280 1398.87 276.692 1400.05 274.329L1427.33 213.722L1436.9 191.038L1481.89 78.6835H1533.62L1440.44 293.468C1437.84 299.612 1435.48 304.928 1433.35 309.418C1431.46 313.907 1429.93 317.57 1428.75 320.405C1427.57 323.477 1426.5 325.958 1425.56 327.848ZM1413.16 256.608L1334.5 78.6835H1387.29L1434.06 191.038H1439.38L1413.16 256.608Z" fill="black"/>
<path d="M1625.63 259.443V5.6709H1673.46V259.443H1625.63Z" fill="black"/>
<path d="M1700.35 118.38V78.6835H1733.65V118.38H1700.35ZM1791.76 262.278C1773.1 262.278 1758.45 256.962 1747.82 246.329C1737.19 235.46 1731.88 220.574 1731.88 201.671V27.6456H1778.29V193.165C1778.29 201.907 1780.07 208.405 1783.61 212.658C1787.15 216.675 1792.94 218.684 1800.97 218.684C1804.75 218.684 1808.29 218.211 1811.6 217.266C1814.91 216.084 1819.04 213.958 1824 210.886V256.253C1818.8 258.143 1813.49 259.561 1808.06 260.506C1802.86 261.688 1797.43 262.278 1791.76 262.278ZM1776.52 118.38V78.6835H1822.58V118.38H1776.52Z" fill="black"/>
</svg>
