<svg width="1336" height="341" viewBox="0 0 1336 341" fill="none" xmlns="http://www.w3.org/2000/svg">
<path d="M1143.48 169.377C1143.48 202.9 1116.27 230.076 1082.7 230.076C1049.14 230.076 1021.93 202.9 1021.93 169.377C1021.93 135.854 1049.14 108.678 1082.7 108.678C1116.27 108.678 1143.48 135.854 1143.48 169.377Z" fill="#DCF763"/>
<path d="M973.448 169.377C973.448 202.9 946.238 230.076 912.672 230.076C879.107 230.076 851.896 202.9 851.896 169.377C851.896 135.854 879.107 108.678 912.672 108.678C946.238 108.678 973.448 135.854 973.448 169.377Z" fill="#DCF763"/>
<path d="M803.419 169.377C803.419 202.9 776.208 230.076 742.643 230.076C709.077 230.076 681.867 202.9 681.867 169.377C681.867 135.854 709.077 108.678 742.643 108.678C776.208 108.678 803.419 135.854 803.419 169.377Z" fill="#DCF763"/>
<path fill-rule="evenodd" clip-rule="evenodd" d="M743.217 339.607H1083.27C1141.27 339.607 1192.49 310.606 1223.18 266.333L1164.93 251.801C1143.99 272.595 1115.14 285.445 1083.27 285.445H1079.18H743.217C679.264 285.445 627.421 233.671 627.421 169.803C627.421 105.936 679.264 54.1614 743.217 54.1614H1083.27C1136.56 54.1614 1181.44 90.1085 1194.93 139.046C1197.63 148.839 1199.07 159.153 1199.07 169.803C1199.07 185.243 1196.04 199.976 1190.54 213.442L1229.56 256.402C1244.64 231.046 1253.3 201.435 1253.3 169.803C1253.3 76.7561 1178.36 1.18916 1085.47 0.0142828L1083.27 0H743.217L741.02 0.0142828C648.128 1.18916 573.188 76.7561 573.188 169.803C573.188 263.583 649.312 339.607 743.217 339.607Z" fill="white"/>
<path fill-rule="evenodd" clip-rule="evenodd" d="M1229.56 256.402L1190.54 213.442C1196.04 199.976 1199.07 185.243 1199.07 169.803C1199.07 159.153 1197.63 148.839 1194.93 139.046L1330.33 297.735L1330.96 298.569C1337.21 307.285 1337.55 318.979 1331.73 328.072C1325.91 337.164 1315.14 341.741 1304.61 339.707L1303.59 339.489L1079.18 285.445H1083.28C1115.14 285.445 1143.99 272.595 1164.93 251.801L1223.18 266.333L1243.1 271.302L1229.56 256.402Z" fill="white"/>
<path d="M230.948 169.957C230.948 203.48 203.738 230.656 170.172 230.656C136.607 230.656 109.396 203.48 109.396 169.957C109.396 136.434 136.607 109.258 170.172 109.258C203.738 109.258 230.948 136.434 230.948 169.957Z" fill="#1BE7FF"/>
<path d="M170.172 339.914C264.156 339.914 340.344 263.822 340.344 169.957C340.344 76.0921 264.156 0 170.172 0C76.1884 0 0 76.0921 0 169.957C0 263.822 76.1884 339.914 170.172 339.914ZM284.778 170.391C284.778 233.845 233.273 285.285 169.738 285.285C106.203 285.285 54.6982 233.845 54.6982 170.391C54.6982 106.936 106.203 55.4961 169.738 55.4961C233.273 55.4961 284.778 106.936 284.778 170.391Z" fill="white"/>
<path d="M516.667 169.957C516.667 203.48 489.456 230.656 455.891 230.656C422.325 230.656 395.115 203.48 395.115 169.957C395.115 136.434 422.325 109.258 455.891 109.258C489.456 109.258 516.667 136.434 516.667 169.957Z" fill="#1BE7FF"/>
<path d="M455.891 339.914C549.875 339.914 626.063 263.822 626.063 169.957C626.063 76.0921 549.875 0 455.891 0C361.907 0 285.719 76.0921 285.719 169.957C285.719 263.822 361.907 339.914 455.891 339.914ZM570.497 170.391C570.497 233.845 518.992 285.285 455.457 285.285C391.922 285.285 340.417 233.845 340.417 170.391C340.417 106.936 391.922 55.4961 455.457 55.4961C518.992 55.4961 570.497 106.936 570.497 170.391Z" fill="white"/>
</svg>
